<svg width="40" height="40" viewBox="0 0 40 40" fill="none" xmlns="http://www.w3.org/2000/svg">
<g id="Icon-Camera-Mid">
<g id="Icon">
<path d="M5 14.9993C5 13.1584 6.49238 11.666 8.33333 11.666H9.88272C10.9972 11.666 12.038 11.109 12.6562 10.1817L14.0104 8.15035C14.6287 7.22302 15.6694 6.66602 16.7839 6.66602H23.2161C24.3306 6.66602 25.3713 7.22302 25.9896 8.15035L27.3438 10.1817C27.962 11.109 29.0028 11.666 30.1173 11.666H31.6667C33.5076 11.666 35 13.1584 35 14.9993V29.9993C35 31.8403 33.5076 33.3327 31.6667 33.3327H8.33333C6.49238 33.3327 5 31.8403 5 29.9993V14.9993Z" stroke="#C0C0C0" stroke-width="2.5" stroke-linecap="round" stroke-linejoin="round"/>
<path d="M25 21.666C25 24.4274 22.7614 26.666 20 26.666C17.2386 26.666 15 24.4274 15 21.666C15 18.9046 17.2386 16.666 20 16.666C22.7614 16.666 25 18.9046 25 21.666Z" stroke="#C0C0C0" stroke-width="2.5" stroke-linecap="round" stroke-linejoin="round"/>
</g>
</g>
</svg>
