<svg width="16" height="16" viewBox="0 0 16 16" fill="none" xmlns="http://www.w3.org/2000/svg">
    <path d="M12.5932 3.4068L13.0351 2.96486V2.96486L12.5932 3.4068ZM4.94445 13.0197V13.6447C5.11021 13.6447 5.26918 13.5789 5.38639 13.4617L4.94445 13.0197ZM3 13.0197H2.375C2.375 13.3649 2.65482 13.6447 3 13.6447V13.0197ZM3 11.0358L2.55806 10.5939C2.44085 10.7111 2.375 10.87 2.375 11.0358H3ZM11.071 3.84874C11.3693 3.55042 11.8529 3.55042 12.1513 3.84874L13.0351 2.96486C12.2487 2.17838 10.9735 2.17838 10.1871 2.96486L11.071 3.84874ZM12.1513 3.84874C12.4496 4.14706 12.4496 4.63073 12.1513 4.92905L13.0351 5.81293C13.8216 5.02646 13.8216 3.75133 13.0351 2.96486L12.1513 3.84874ZM12.1513 4.92905L4.50251 12.5778L5.38639 13.4617L13.0351 5.81293L12.1513 4.92905ZM4.94445 12.3947H3V13.6447H4.94445V12.3947ZM10.1871 2.96486L2.55806 10.5939L3.44194 11.4777L11.071 3.84874L10.1871 2.96486ZM2.375 11.0358V13.0197H3.625V11.0358H2.375ZM9.35373 4.68208L11.3179 6.64627L12.2018 5.76238L10.2376 3.79819L9.35373 4.68208Z" fill="#3D3B39"/>
</svg>
