<svg width="100" height="100" viewBox="0 0 100 100" fill="none" xmlns="http://www.w3.org/2000/svg">
<path d="M10 14C10 11.7909 11.7909 10 14 10H86C88.2091 10 90 11.7909 90 14V86C90 88.2091 88.2091 90 86 90H14C11.7909 90 10 88.2091 10 86V14Z" fill="#EFEFEF"/>
<rect x="16" y="22" width="31" height="6" rx="2" fill="#C0C0C0"/>
<rect x="16" y="34" width="31" height="6" rx="2" fill="#C0C0C0"/>
<rect x="16" y="46" width="31" height="6" rx="2" fill="#C0C0C0"/>
<rect x="16" y="58" width="31" height="6" rx="2" fill="#C0C0C0"/>
<rect x="53" y="22" width="31" height="6" rx="2" fill="#C0C0C0"/>
<rect x="53" y="34" width="31" height="6" rx="2" fill="#C0C0C0"/>
<rect x="53" y="46" width="31" height="6" rx="2" fill="#C0C0C0"/>
<rect x="53" y="58" width="31" height="6" rx="2" fill="#C0C0C0"/>
<rect x="43" y="76" width="13" height="6" rx="3" fill="#F9F9F9"/>
</svg>
