<svg width="100" height="100" viewBox="0 0 100 100" fill="none" xmlns="http://www.w3.org/2000/svg">
<path d="M10 10L85 15V85.7245C85 88.0383 83.0427 89.8695 80.7339 89.7156L10 85V10Z" fill="#C0C0C0"/>
<path d="M10 10H86C88.2091 10 90 11.7909 90 14V81C90 83.2091 88.2091 85 86 85H10V10Z" fill="#EFEFEF"/>
<rect x="25" y="23" width="50" height="50" rx="4" fill="white" stroke="#C0C0C0" stroke-width="2"/>
<path d="M52 32C52 30.8954 51.1046 30 50 30C48.8954 30 48 30.8954 48 32H52ZM48 34C48 35.1046 48.8954 36 50 36C51.1046 36 52 35.1046 52 34H48ZM62 54C60.8954 54 60 54.8954 60 56C60 57.1046 60.8954 58 62 58V54ZM66 58C67.1046 58 68 57.1046 68 56C68 54.8954 67.1046 54 66 54V58ZM50 56V54C48.8954 54 48 54.8954 48 56H50ZM54 58C55.1046 58 56 57.1046 56 56C56 54.8954 55.1046 54 54 54V58ZM48 64C48 65.1046 48.8954 66 50 66C51.1046 66 52 65.1046 52 64H48ZM52 42C52 40.8954 51.1046 40 50 40C48.8954 40 48 40.8954 48 42H52ZM50 48H48C48 49.1046 48.8954 50 50 50V48ZM58 62C56.8954 62 56 62.8954 56 64C56 65.1046 56.8954 66 58 66V62ZM66 66C67.1046 66 68 65.1046 68 64C68 62.8954 67.1046 62 66 62V66ZM34 46C32.8954 46 32 46.8954 32 48C32 49.1046 32.8954 50 34 50V46ZM42 50C43.1046 50 44 49.1046 44 48C44 46.8954 43.1046 46 42 46V50ZM50.02 50C51.1246 50 52.02 49.1046 52.02 48C52.02 46.8954 51.1246 46 50.02 46V50ZM58.02 50C59.1246 50 60.02 49.1046 60.02 48C60.02 46.8954 59.1246 46 58.02 46V50ZM66 46C64.8954 46 64 46.8954 64 48C64 49.1046 64.8954 50 66 50V46ZM66.02 50C67.1246 50 68.02 49.1046 68.02 48C68.02 46.8954 67.1246 46 66.02 46V50ZM36 34H40V30H36V34ZM40 34V38H44V34H40ZM40 38H36V42H40V38ZM36 38V34H32V38H36ZM36 38H32C32 40.2091 33.7909 42 36 42V38ZM40 38V42C42.2091 42 44 40.2091 44 38H40ZM40 34H44C44 31.7909 42.2091 30 40 30V34ZM36 30C33.7909 30 32 31.7909 32 34H36V30ZM60 34H64V30H60V34ZM64 34V38H68V34H64ZM64 38H60V42H64V38ZM60 38V34H56V38H60ZM60 38H56C56 40.2091 57.7909 42 60 42V38ZM64 38V42C66.2091 42 68 40.2091 68 38H64ZM64 34H68C68 31.7909 66.2091 30 64 30V34ZM60 30C57.7909 30 56 31.7909 56 34H60V30ZM36 58H40V54H36V58ZM40 58V62H44V58H40ZM40 62H36V66H40V62ZM36 62V58H32V62H36ZM36 62H32C32 64.2091 33.7909 66 36 66V62ZM40 62V66C42.2091 66 44 64.2091 44 62H40ZM40 58H44C44 55.7909 42.2091 54 40 54V58ZM36 54C33.7909 54 32 55.7909 32 58H36V54ZM48 32V34H52V32H48ZM62 58H66V54H62V58ZM50 58H54V54H50V58ZM48 56V64H52V56H48ZM48 42V48H52V42H48ZM58 66H66V62H58V66ZM34 50H42V46H34V50ZM50 50H50.02V46H50V50ZM66 50H66.02V46H66V50ZM50 50H58.02V46H50V50Z" fill="#C0C0C0"/>
</svg>
