<svg width="24" height="24" viewBox="0 0 24 24" fill="none" xmlns="http://www.w3.org/2000/svg">
<path fill-rule="evenodd" clip-rule="evenodd" d="M9.7013 4.34439C10.7096 2.55187 13.2904 2.55187 14.2987 4.34439L21.6575 17.4266C22.6464 19.1847 21.3759 21.357 19.3588 21.357H4.64124C2.62409 21.357 1.35361 19.1847 2.34255 17.4266L9.7013 4.34439ZM13.3186 17.4011C13.3186 18.1294 12.7282 18.7198 11.9999 18.7198C11.2716 18.7198 10.6812 18.1294 10.6812 17.4011C10.6812 16.6728 11.2716 16.0824 11.9999 16.0824C12.7282 16.0824 13.3186 16.6728 13.3186 17.4011ZM11.9999 6.85147C11.2716 6.85147 10.6812 7.44187 10.6812 8.17017V12.1263C10.6812 12.8546 11.2716 13.445 11.9999 13.445C12.7282 13.445 13.3186 12.8546 13.3186 12.1263V8.17017C13.3186 7.44187 12.7282 6.85147 11.9999 6.85147Z" fill="currentColor"/>
</svg>
